# AST/ASF file generated using VICON BodyLanguage
# -----------------------------------------------
:version 1.10
:name VICON
:units
  mass 1.0
  length 0.45
  angle deg
:documentation
   .ast/.asf automatically generated from VICON data using
   VICON BodyBuilder and BodyLanguage model FoxedUp or BRILLIANT.MOD
:root
   order TX TY TZ RX RY RZ
   axis XYZ
   position 0 0 0  
   orientation 0 0 0 
:bonedata
  begin
     id 1 
     name lhipjoint
     direction 0.521452 -0.77106 0.36545 
     length 2.0933 
     axis 0 0 0  XYZ
  end
  begin
     id 2 
     name lfemur
     direction 0.34202 -0.939693 0  
     length 6.83441  
     axis 0 0 20  XYZ
    dof rx ry rz
    limits (-160.0 20.0)
           (-70.0 70.0)
           (-60.0 70.0)
  end
  begin
     id 3 
     name ltibia
     direction 0.34202 -0.939693 0   
     length 7.28749   
     axis 0 0 20   XYZ
    dof rx
    limits (-10.0 170.0)
  end
  begin
     id 4 
     name lfoot
     direction 0.100608 -0.276418 0.955757   
     length 1.52195   
     axis -90 7.62852e-016 20   XYZ
    dof rx rz
    limits (-45.0 90.0)
           (-70.0 20.0)
  end
  begin
     id 5 
     name ltoes
     direction 1.53558e-011 -4.21907e-011 1   
     length 0.770459   
     axis -90 7.62852e-016 20   XYZ
    dof rx
    limits (-90.0 20.0)
  end
  begin
     id 6 
     name rhipjoint
     direction -0.488071 -0.788702 0.373812   
     length 2.04648  
     axis 0 0 0  XYZ 
  end
  begin
     id 7 
     name rfemur
     direction -0.34202 -0.939693 0   
     length 6.92583   
     axis 0 0 -20   XYZ
    dof rx ry rz
    limits (-160.0 20.0)
           (-70.0 70.0)
           (-70.0 60.0)
  end
  begin
     id 8 
     name rtibia
     direction -0.34202 -0.939693 0   
     length 7.41043   
     axis 0 0 -20   XYZ
    dof rx
    limits (-10.0 170.0)
 end
 begin
     id 9 
     name rfoot
     direction -0.0784433 -0.215521 0.973343   
     length 1.67708  
     axis -90 -7.62852e-016 -20   XYZ
    dof rx rz
    limits (-45.0 90.0)
           (-20.0 70.0)
  end
  begin
     id 10 
     name rtoes
     direction -1.53551e-011 -4.21842e-011 1   
     length 0.849787   
     axis -90 -7.62852e-016 -20   XYZ
    dof rx
    limits (-90.0 20.0)
  end
  begin
     id 11 
     name lowerback
     direction -0.0122332 0.997575 -0.0685192   
     length 1.98724   
     axis 0 0 0   XYZ
    dof rx ry rz
    limits (-20.0 45.0)
           (-30.0 30.0)
           (-30.0 30.0)
  end
  begin
     id 12 
     name upperback
     direction 0.0182347 0.999724 -0.0148421   
     length 1.99029   
     axis 0 0 0   XYZ
    dof rx ry rz
    limits (-20.0 45.0)
           (-30.0 30.0)
           (-30.0 30.0)
  end
  begin
     id 13 
     name thorax
     direction 0.0242908 0.99956 0.0170184   
     length 1.99573   
     axis 0 0 0   XYZ
    dof rx ry rz
    limits (-20.0 45.0)
           (-30.0 30.0)
           (-30.0 30.0)
  end
  begin
     id 14 
     name lowerneck
     direction 0.0654488 0.985533 0.156338   
     length 1.4285   
     axis 0 0 0   XYZ
    dof rx ry rz
    limits (-20.0 45.0)
           (-30.0 30.0)
           (-30.0 30.0)
  end
  begin
     id 15 
     name upperneck
     direction -0.02953 0.998556 -0.0448842   
     length 1.44709   
     axis 0 0 0   XYZ
    dof rx ry rz
    limits (-20.0 45.0)
           (-30.0 30.0)
           (-30.0 30.0)
  end
  begin
     id 16
     name head
     direction -0.0155588 0.999386 -0.0314063  
     length 1.44689  
     axis 0 0 0   XYZ
    dof rx ry rz
    limits (-20.0 45.0)
           (-30.0 30.0)
           (-30.0 30.0)
  end
  begin
     id 17 
     name lclavicle
     direction 0.968229 0.236071 -0.0824755  
     length 3.60593  
     axis 0 0 0   XYZ
    dof ry rz
    limits (-20.0 10.0)
           (0.0 20.0)
  end
  begin
     id 18 
     name lhumerus
     direction 1 -4.48968e-011 7.8138e-029   
     length 5.06035   
     axis 180 -30 -90   XYZ
    dof rx ry rz
    limits (-60.0 90.0)
           (-90.0 90.0)
           (-90.0 90.0)
  end
  begin
     id 19
     name lradius
     direction 1 -4.48967e-011 9.02887e-028   
     length 3.1478   
     axis 180 -30 -90   XYZ
    dof rx
    limits (-10.0 170.0)
  end
  begin
     id 20
     name lwrist
     direction 1 -4.48961e-011 7.20928e-028   
     length 1.5739   
     axis -5.52449e-016 90 90   XYZ
    dof ry
    limits (-180.0 0.0)
 end
  begin
     id 21 
     name lhand
     direction 1 -4.48972e-011 1.44186e-027   
     length 0.606747   
     axis -9.20027e-016 90 90   XYZ
    dof rx rz
    limits (-90.0 90.0)
           (-45.0 45.0)
  end
  begin
     id 22 
     name lfingers
     direction 1 -4.48943e-011 2.88371e-027   
     length 0.489175   
     axis -1.84005e-015 90 90   XYZ
    dof rx
    limits (0.0 90.0)
  end
  begin
     id 23
     name lthumb
     direction 0.707107 -6.34917e-011 0.707107   
     length 0.70236   
     axis -90 45 2.85299e-015   XYZ
    dof rx rz
    limits (-45.0 45.0)
           (-45.0 45.0)
  end
  begin
     id 24 
     name rclavicle
     direction -0.978165 0.207816 0.0022268   
     length 3.35425  
     axis 0 0 0   XYZ 
    dof ry rz
    limits (-10.0 20.0)
           (-20.0 0.0)
  end
  begin
     id 25 
     name rhumerus
     direction -1 -4.48964e-011 -4.02159e-027  
     length 5.12273   
     axis 180 30 90   XYZ
    dof rx ry rz
    limits (-90.0 60.0)
           (-90.0 90.0)
           (-90.0 90.0)
  end
  begin
     id 26 
     name rradius
     direction -1 -4.48966e-011 1.62746e-027   
     length 3.422   
     axis 180 30 90   XYZ
    dof rx
    limits (-10.0 170.0)
  end
  begin
     id 27 
     name rwrist
     direction -1 -4.4896e-011 7.20928e-028   
     length 1.711   
     axis -5.52449e-016 -90 -90   XYZ
    dof ry
    limits (-180.0 0.0)
  end
  begin
     id 28
     name rhand
     direction -1 -4.48979e-011 1.44186e-027   
     length 0.704599   
     axis -9.20027e-016 -90 -90   XYZ
    dof rx rz
    limits (-90.0 90.0)
           (-45.0 45.0)
  end
  begin
     id 29
     name rfingers
     direction -1 -4.48962e-011 2.88371e-027   
     length 0.568066   
     axis -1.84005e-015 -90 -90   XYZ
    dof rx
    limits (0.0 90.0)
  end
  begin
     id 30
     name rthumb
     direction -0.707107 -6.34949e-011 0.707107   
     length 0.815633   
     axis -90 -45 -2.85299e-015   XYZ
    dof rx rz
    limits (-45.0 45.0)
           (-45.0 45.0)
  end
:hierarchy
  begin
    root lhipjoint rhipjoint lowerback
    lhipjoint lfemur
    lfemur ltibia
    ltibia lfoot
    lfoot ltoes
    rhipjoint rfemur
    rfemur rtibia
    rtibia rfoot
    rfoot rtoes
    lowerback upperback
    upperback thorax
    thorax lowerneck lclavicle rclavicle
    lowerneck upperneck
    upperneck head
    lclavicle lhumerus
    lhumerus lradius
    lradius lwrist
    lwrist lhand lthumb
    lhand lfingers
    rclavicle rhumerus
    rhumerus rradius
    rradius rwrist
    rwrist rhand rthumb
    rhand rfingers
  end

#!OML:ASF E:\id_vita\Project 1\Capture day 1\Session 1\Male1.ASF
:FULLY-SPECIFIED
:DEGREES
525
root 37.3542 13.2952 -0.234689 -143.005 -81.7765 190.294
lowerback 22.9559 -0.56247 -1.3338
upperback 8.08373 -1.44992 2.97041
thorax -3.82383 -1.00354 4.35548
lowerneck -14.2923 -0.838095 -6.45967
upperneck 34.7533 3.07022 -12.7391
head 14.7296 -1.60223 -3.75363
rclavicle -2.10712e-014 2.90226e-014
rhumerus 61.3354 19.9853 -56.4946
rradius 26.4235
rwrist 31.8962
rhand -23.3606 35.3356
rfingers 7.12502
rthumb 3.09488 5.37833
lclavicle -2.10712e-014 2.90226e-014
lhumerus 55.8756 -13.1348 45.7534
lradius 24.2876
lwrist -21.4205
lhand -42.0085 79.1118
lfingers 7.12502
lthumb -14.9033 251.444
rfemur -13.371 2.05202 20.7257
rtibia 25.8919
rfoot -30.5306 -16.5314
rtoes -26.3956
lfemur -80.0682 5.95715 -23.0493
ltibia 87.8793
lfoot -43.4522 6.74456
ltoes -11.5012
526
root 37.3344 13.2872 -0.238371 -143 -81.8126 190.357
lowerback 22.8992 -0.541926 -1.37677
upperback 8.04151 -1.42238 3.07719
thorax -3.83921 -0.989963 4.48851
lowerneck -14.6615 -0.985671 -6.52027
upperneck 35.3342 2.83937 -12.4088
head 15.0668 -1.70487 -3.69581
rclavicle -9.93923e-015 -5.96354e-016
rhumerus 61.3552 20.1459 -56.0081
rradius 26.5208
rwrist 31.3595
rhand -23.3043 35.0457
rfingers 7.12502
rthumb 3.14923 5.08924
lclavicle -9.93923e-015 -5.96354e-016
lhumerus 55.6948 -12.8501 46.6324
lradius 24.1706
lwrist -21.8585
lhand -42.4302 79.2875
lfingers 7.12502
lthumb -15.3096 251.299
rfemur -13.1327 2.05399 20.7478
rtibia 25.6597
rfoot -30.6148 -15.9125
rtoes -25.8262
lfemur -80.0954 6.05708 -23.0744
ltibia 88.0113
lfoot -43.1303 6.73103
ltoes -11
527
root 37.3063 13.2856 -0.240269 -143.877 -81.7409 191.237
lowerback 22.8456 -0.469051 -1.35766
upperback 8.0492 -1.32351 3.16935
thorax -3.81025 -0.945128 4.55086
lowerneck -14.8606 -0.975101 -6.3831
upperneck 35.6295 2.86811 -12.4835
head 15.261 -1.7064 -3.77902
rclavicle -5.96354e-014 -2.64384e-014
rhumerus 61.4876 20.2246 -55.4008
rradius 26.5915
rwrist 30.96
rhand -23.3129 34.9616
rfingers 7.12502
rthumb 3.14094 5.00496
lclavicle -5.96354e-014 -2.64384e-014
lhumerus 55.5302 -12.5147 47.5322
lradius 24.1637
lwrist -22.3292
lhand -42.6451 79.6616
lfingers 7.12502
lthumb -15.5166 250.941
rfemur -12.8996 2.0424 20.8013
rtibia 25.4826
rfoot -30.8188 -15.4382
rtoes -25.2955
lfemur -80.0036 6.25193 -23.0066
ltibia 88.1078
lfoot -43.1026 6.42586
ltoes -10.7696
528
root 37.2765 13.2829 -0.23678 -144.423 -81.6928 191.837
lowerback 22.6877 -0.43869 -1.22493
upperback 8.09076 -1.25943 3.21789
thorax -3.69327 -0.917494 4.50426
lowerneck -14.7655 -0.982598 -6.16581
upperneck 35.2638 2.93188 -13.0244
head 15.0864 -1.70164 -4.00867
rclavicle 1.19271e-015 3.06128e-014
rhumerus 61.7074 20.2043 -54.8882
rradius 26.6332
rwrist 30.5797
rhand -23.2666 34.9608
rfingers 7.12502
rthumb 3.18562 5.00484
lclavicle 1.19271e-015 3.06128e-014
lhumerus 55.5919 -12.3661 47.8516
lradius 24.1344
lwrist -22.2012
lhand -42.5396 79.5992
lfingers 7.12502
lthumb -15.415 250.996
rfemur -12.8131 1.76101 20.8616
rtibia 25.2864
rfoot -30.6986 -15.4224
rtoes -25.8428
lfemur -79.9425 6.33137 -22.9317
ltibia 88.1615
lfoot -43.2614 5.96166
ltoes -10.9395
529
root 37.2441 13.2778 -0.236973 -143.941 -81.5856 191.383
lowerback 22.5612 -0.467802 -1.27541
upperback 8.14243 -1.31235 3.19489
thorax -3.56867 -0.94723 4.51537
lowerneck -14.1614 -0.893015 -5.92533
upperneck 33.7573 3.10229 -13.8313
head 14.2785 -1.60605 -4.22205
rclavicle 7.95139e-016 -4.35338e-014
rhumerus 61.891 20.2195 -54.9018
rradius 26.6751
rwrist 30.5912
rhand -23.2274 35.0103
rfingers 7.12502
rthumb 3.22347 5.05487
lclavicle 7.95139e-016 -4.35338e-014
lhumerus 55.6123 -12.1494 47.89
lradius 24.1028
lwrist -21.8214
lhand -42.2614 79.3399
lfingers 7.12502
lthumb -15.147 251.234
rfemur -12.6677 1.40001 20.7888
rtibia 24.9121
rfoot -30.2921 -15.6626
rtoes -26.8892
lfemur -79.7923 6.40675 -23.084
ltibia 88.1982
lfoot -43.4172 5.90524
ltoes -11.6829
